<?xml version="1.0" standalone="no"?>
<!DOCTYPE svg PUBLIC "-//W3C//DTD SVG 20010904//EN"
 "http://www.w3.org/TR/2001/REC-SVG-20010904/DTD/svg10.dtd">
<svg version="1.0" xmlns="http://www.w3.org/2000/svg"
 width="722.000000pt" height="323.000000pt" viewBox="0 0 722.000000 323.000000"
 preserveAspectRatio="xMidYMid meet">

<g transform="translate(0.000000,323.000000) scale(0.100000,-0.100000)"
fill="#000000" stroke="none">
<path d="M4775 2645 c-140 -26 -251 -83 -356 -182 -137 -130 -209 -287 -217
-480 -9 -213 49 -364 198 -513 97 -98 193 -154 326 -191 107 -30 275 -30 387
0 203 54 372 195 464 386 95 200 79 474 -37 654 -167 258 -461 383 -765 326z
m280 -140 c206 -52 370 -209 420 -400 8 -33 15 -99 15 -148 0 -164 -50 -287
-160 -397 -259 -260 -703 -213 -902 95 -105 162 -111 380 -16 569 62 123 214
241 361 281 70 18 209 19 282 0z"/>
<path d="M700 2560 l0 -70 178 0 c404 0 550 -35 677 -164 108 -110 149 -219
148 -396 -2 -198 -74 -338 -223 -431 -95 -59 -232 -79 -555 -79 l-225 0 0 -66
0 -66 323 4 c353 5 381 9 507 70 87 42 193 149 243 245 53 102 77 204 77 330
0 208 -60 365 -189 492 -134 134 -255 176 -546 191 -99 5 -233 10 -297 10
l-118 0 0 -70z"/>
<path d="M2117 2623 c-4 -3 -7 -35 -7 -70 l0 -63 395 0 396 0 -3 68 -3 67
-386 3 c-212 1 -388 -1 -392 -5z"/>
<path d="M3663 2359 l-298 -272 0 -67 0 -67 320 -332 320 -331 95 0 94 0 -60
63 c-33 34 -186 193 -340 352 -153 160 -285 297 -292 306 -11 15 28 54 310
310 178 161 325 296 326 301 2 4 -37 8 -87 8 l-91 0 -297 -271z"/>
<path d="M3130 1955 l0 -665 75 0 75 0 0 665 0 665 -75 0 -75 0 0 -665z"/>
<path d="M2114 2066 c-3 -7 -4 -38 -2 -67 l3 -54 390 0 390 0 0 65 0 65 -388
3 c-322 2 -388 0 -393 -12z"/>
<path d="M2110 1355 l0 -65 395 0 395 0 0 65 0 65 -395 0 -395 0 0 -65z"/>
</g>
</svg>
